<svg id="Layer_1" data-name="Layer 1" xmlns="http://www.w3.org/2000/svg" viewBox="0 0 529.48 183.63"><defs><style>.cls-1{fill:none;stroke:#7f3f98;stroke-width:12px;}.cls-1,.cls-2{stroke-miterlimit:10;}.cls-2{fill:#803f98;stroke:#803f98;stroke-width:6px;}.cls-3{font-size:81px;fill:#13001a;font-family:Alfarn;}</style></defs><path class="cls-1" d="M86.9,100.12q.22,38.89.9,77C42.52,173.84,7.11,136.4,7.08,92,7.05,47.83,42,10.47,87,6.77Q86.64,52.91,86.9,100.12Z" transform="translate(-1.08)"/><path class="cls-1" d="M87,6.77s-95.37,76.34.77,170.39" transform="translate(-1.08)"/><line class="cls-1" x1="6.08" y1="88.43" x2="86.72" y2="88.43"/><path class="cls-1" d="M35.33,29.14S48.49,46,86.8,53.22" transform="translate(-1.08)"/><path class="cls-1" d="M33.54,147.71S46.71,130.88,85,123.64" transform="translate(-1.08)"/><path class="cls-2" d="M102.46,180.31a45,45,0,0,0,8.34-1.57,41.46,41.46,0,0,0,12.52-6V60.45l25.8,100.24S214.76,124,166.58,43.78l-9.87,13.53s22.77,31.77,3.8,70.46L127.12,8.23S118,4.15,103.6,3.2Z" transform="translate(-1.08)"/><text class="cls-3" transform="translate(205.08 78.15)">World <tspan x="0" y="82">News</tspan></text></svg>